<svg id="r_logo" xmlns="http://www.w3.org/2000/svg" width="49.132" height="47.574" viewBox="0 0 49.132 47.574">
  <g id="Group_25421" data-name="Group 25421" transform="translate(0 0)">
    <path id="Polygon_1" data-name="Polygon 1" d="M10.51,1.349a.9.9,0,0,0-.78.451L1.468,16.187a.9.9,0,0,0,0,.9L9.731,31.469a.9.9,0,0,0,.78.451h16.5a.9.9,0,0,0,.78-.451l8.262-14.386a.9.9,0,0,0,0-.9L27.795,1.8a.9.9,0,0,0-.78-.451H10.51M10.51,0h16.5a2.248,2.248,0,0,1,1.949,1.128l8.262,14.386a2.248,2.248,0,0,1,0,2.239L28.964,32.14a2.248,2.248,0,0,1-1.949,1.128H10.51A2.248,2.248,0,0,1,8.561,32.14L.3,17.754a2.248,2.248,0,0,1,0-2.239L8.561,1.128A2.248,2.248,0,0,1,10.51,0Z" transform="translate(0 18.763) rotate(-30)" fill="#353c40"/>
    <path id="Polygon_2" data-name="Polygon 2" d="M19.705,0a5,5,0,0,1,4.33,2.5l4.642,8.038a5,5,0,0,1,0,5l-4.642,8.038a5,5,0,0,1-4.33,2.5H10.417a5,5,0,0,1-4.33-2.5L1.444,15.538a5,5,0,0,1,0-5L6.087,2.5A5,5,0,0,1,10.417,0Z" transform="translate(5.005 20.027) rotate(-30)" fill="#ed1c24"/>
  </g>
  <path id="Subtraction_138" data-name="Subtraction 138" d="M10.025,13.831H6.851l-4.1-5.105H2.6v0H0V6.681H3.973c1.8,0,2.785-.771,2.785-2.172,0-1.356-.981-2.134-2.692-2.134H2.6V6.046H0V0H4.14A7.679,7.679,0,0,1,6.355.3a4.67,4.67,0,0,1,1.651.86A3.7,3.7,0,0,1,9.037,2.53a4.558,4.558,0,0,1,.356,1.833,4.074,4.074,0,0,1-.875,2.594A4.824,4.824,0,0,1,5.57,8.577l4.455,5.254Zm-7.426,0H0V9.363H2.6v4.468Z" transform="translate(21.1 17.106)" fill="#fff" stroke="rgba(0,0,0,0)" stroke-miterlimit="10" stroke-width="1"/>
  <path id="Path_57956" data-name="Path 57956" d="M-23854.18-11968.893h-5.871v2.047h6.813l-.043-2.047Z" transform="translate(23876.85 11992.68)" fill="#fff"/>
  <rect id="Rectangle_2871" data-name="Rectangle 2871" width="3.887" height="1.943" transform="translate(21.1 29.044)" fill="#fff" stroke="rgba(0,0,0,0)" stroke-miterlimit="10" stroke-width="1"/>
</svg>
